<svg width="123" height="24" viewBox="0 0 123 24" fill="none" xmlns="http://www.w3.org/2000/svg">
<path d="M0 10.5C0 5.55025 0 3.07538 1.53769 1.53769C3.07538 0 5.55025 0 10.5 0H13.5C18.4497 0 20.9246 0 22.4623 1.53769C24 3.07538 24 5.55025 24 10.5V13.5C24 18.4497 24 20.9246 22.4623 22.4623C20.9246 24 18.4497 24 13.5 24H10.5C5.55025 24 3.07538 24 1.53769 22.4623C0 20.9246 0 18.4497 0 13.5V10.5Z" fill="#FFC700"/>
<path d="M14.1168 8.35291C16.6023 9.81498 17.8451 10.546 18.0276 11.6008C18.0733 11.8646 18.0733 12.1346 18.0276 12.3985C17.8451 13.4532 16.6023 14.1843 14.1168 15.6463V15.6463C11.6313 17.1084 10.3886 17.8395 9.4008 17.4731C9.15369 17.3815 8.92422 17.2465 8.72278 17.0743C7.91752 16.3859 7.91752 14.9238 7.91752 11.9996V11.9996C7.91752 9.07547 7.91752 7.6134 8.72278 6.92495C8.92422 6.75273 9.15369 6.61774 9.4008 6.52611C10.3886 6.15979 11.6313 6.89083 14.1168 8.35291V8.35291Z" fill="black"/>
<path d="M35.2166 15.3L34.9826 10.638L39.7346 5.4H44.3606L39.0326 11.268L36.6746 13.68L35.2166 15.3ZM31.4186 18V5.4H35.5946V18H31.4186ZM39.6986 18L35.9906 13.104L38.7446 10.188L44.6126 18H39.6986ZM45.1823 18V5.4H49.4303V18H45.1823ZM51.4752 18V5.4H54.9672L61.3752 13.068H59.7552V5.4H63.8952V18H60.4032L53.9952 10.332H55.6152V18H51.4752ZM72.548 18.288C71.528 18.288 70.58 18.126 69.704 17.802C68.84 17.478 68.09 17.022 67.454 16.434C66.818 15.834 66.32 15.132 65.96 14.328C65.612 13.524 65.438 12.648 65.438 11.7C65.438 10.74 65.612 9.864 65.96 9.072C66.32 8.268 66.818 7.572 67.454 6.984C68.09 6.384 68.84 5.922 69.704 5.598C70.58 5.274 71.528 5.112 72.548 5.112C73.58 5.112 74.528 5.274 75.392 5.598C76.256 5.922 77.006 6.384 77.642 6.984C78.278 7.572 78.77 8.268 79.118 9.072C79.478 9.864 79.658 10.74 79.658 11.7C79.658 12.648 79.478 13.524 79.118 14.328C78.77 15.132 78.278 15.834 77.642 16.434C77.006 17.022 76.256 17.478 75.392 17.802C74.528 18.126 73.58 18.288 72.548 18.288ZM72.548 14.85C72.944 14.85 73.31 14.778 73.646 14.634C73.994 14.49 74.294 14.286 74.546 14.022C74.81 13.746 75.014 13.416 75.158 13.032C75.302 12.636 75.374 12.192 75.374 11.7C75.374 11.208 75.302 10.77 75.158 10.386C75.014 9.99 74.81 9.66 74.546 9.396C74.294 9.12 73.994 8.91 73.646 8.766C73.31 8.622 72.944 8.55 72.548 8.55C72.152 8.55 71.78 8.622 71.432 8.766C71.096 8.91 70.796 9.12 70.532 9.396C70.28 9.66 70.082 9.99 69.938 10.386C69.794 10.77 69.722 11.208 69.722 11.7C69.722 12.192 69.794 12.636 69.938 13.032C70.082 13.416 70.28 13.746 70.532 14.022C70.796 14.286 71.096 14.49 71.432 14.634C71.78 14.778 72.152 14.85 72.548 14.85ZM81.1998 18V5.4H87.9318C89.6718 5.4 90.9558 5.712 91.7838 6.336C92.6118 6.948 93.0258 7.734 93.0258 8.694C93.0258 9.33 92.8458 9.9 92.4858 10.404C92.1378 10.896 91.6278 11.286 90.9558 11.574C90.2838 11.862 89.4558 12.006 88.4718 12.006L88.8318 11.034C89.8158 11.034 90.6618 11.172 91.3698 11.448C92.0898 11.724 92.6418 12.126 93.0258 12.654C93.4218 13.17 93.6198 13.794 93.6198 14.526C93.6198 15.618 93.1638 16.47 92.2518 17.082C91.3518 17.694 90.0318 18 88.2918 18H81.1998ZM85.3758 15.03H87.9318C88.3998 15.03 88.7478 14.946 88.9758 14.778C89.2158 14.61 89.3358 14.364 89.3358 14.04C89.3358 13.716 89.2158 13.47 88.9758 13.302C88.7478 13.134 88.3998 13.05 87.9318 13.05H85.0878V10.242H87.3558C87.8358 10.242 88.1838 10.164 88.3998 10.008C88.6278 9.84 88.7418 9.606 88.7418 9.306C88.7418 8.994 88.6278 8.76 88.3998 8.604C88.1838 8.448 87.8358 8.37 87.3558 8.37H85.3758V15.03ZM101.728 18.288C100.708 18.288 99.7597 18.126 98.8837 17.802C98.0197 17.478 97.2697 17.022 96.6337 16.434C95.9977 15.834 95.4997 15.132 95.1397 14.328C94.7917 13.524 94.6177 12.648 94.6177 11.7C94.6177 10.74 94.7917 9.864 95.1397 9.072C95.4997 8.268 95.9977 7.572 96.6337 6.984C97.2697 6.384 98.0197 5.922 98.8837 5.598C99.7597 5.274 100.708 5.112 101.728 5.112C102.76 5.112 103.708 5.274 104.572 5.598C105.436 5.922 106.186 6.384 106.822 6.984C107.458 7.572 107.95 8.268 108.298 9.072C108.658 9.864 108.838 10.74 108.838 11.7C108.838 12.648 108.658 13.524 108.298 14.328C107.95 15.132 107.458 15.834 106.822 16.434C106.186 17.022 105.436 17.478 104.572 17.802C103.708 18.126 102.76 18.288 101.728 18.288ZM101.728 14.85C102.124 14.85 102.49 14.778 102.826 14.634C103.174 14.49 103.474 14.286 103.726 14.022C103.99 13.746 104.194 13.416 104.338 13.032C104.482 12.636 104.554 12.192 104.554 11.7C104.554 11.208 104.482 10.77 104.338 10.386C104.194 9.99 103.99 9.66 103.726 9.396C103.474 9.12 103.174 8.91 102.826 8.766C102.49 8.622 102.124 8.55 101.728 8.55C101.332 8.55 100.96 8.622 100.612 8.766C100.276 8.91 99.9757 9.12 99.7117 9.396C99.4597 9.66 99.2617 9.99 99.1177 10.386C98.9737 10.77 98.9017 11.208 98.9017 11.7C98.9017 12.192 98.9737 12.636 99.1177 13.032C99.2617 13.416 99.4597 13.746 99.7117 14.022C99.9757 14.286 100.276 14.49 100.612 14.634C100.96 14.778 101.332 14.85 101.728 14.85ZM108.752 18L114.368 10.152L114.35 13.122L108.914 5.4H113.684L116.852 10.08L114.818 10.098L117.914 5.4H122.486L117.05 12.96V10.008L122.756 18H117.896L114.728 13.104L116.69 13.086L113.594 18H108.752Z" fill="white"/>
</svg>
