<svg width="64" height="64" viewBox="0 0 64 64" fill="none" xmlns="http://www.w3.org/2000/svg">
<path d="M0 28C0 14.8007 0 8.20101 4.1005 4.1005C8.20101 0 14.8007 0 28 0H36C49.1993 0 55.799 0 59.8995 4.1005C64 8.20101 64 14.8007 64 28V36C64 49.1993 64 55.799 59.8995 59.8995C55.799 64 49.1993 64 36 64H28C14.8007 64 8.20101 64 4.1005 59.8995C0 55.799 0 49.1993 0 36V28Z" fill="#FFC700"/>
<path d="M37.5 22.4738C44.1153 26.2931 47.423 28.2028 47.9088 30.9581C48.0304 31.6474 48.0304 32.3526 47.9088 33.0419C47.423 35.7973 44.1153 37.7069 37.5 41.5263V41.5263C30.8847 45.3457 27.577 47.2554 24.9479 46.2984C24.2902 46.0591 23.6794 45.7064 23.1433 45.2566C21 43.4581 21 39.6388 21 32V32C21 24.3613 21 20.5419 23.1433 18.7435C23.6794 18.2936 24.2902 17.941 24.9479 17.7016C27.577 16.7447 30.8847 18.6544 37.5 22.4738V22.4738Z" fill="#060500"/>
</svg>
