<svg width="34" height="34" viewBox="0 0 34 34" fill="none" xmlns="http://www.w3.org/2000/svg">
<path d="M3.89581 6.37498C3.75502 6.37299 3.61523 6.399 3.48458 6.45151C3.35392 6.50401 3.23501 6.58195 3.13474 6.68081C3.03447 6.77967 2.95485 6.89748 2.90051 7.02737C2.84616 7.15727 2.81818 7.29668 2.81818 7.43748C2.81818 7.57829 2.84616 7.7177 2.90051 7.84759C2.95485 7.97749 3.03447 8.09529 3.13474 8.19415C3.23501 8.29301 3.35392 8.37096 3.48458 8.42346C3.61523 8.47596 3.75502 8.50198 3.89581 8.49998H30.1041C30.2449 8.50198 30.3847 8.47596 30.5154 8.42346C30.646 8.37096 30.7649 8.29301 30.8652 8.19415C30.9655 8.09529 31.0451 7.97749 31.0994 7.84759C31.1538 7.7177 31.1818 7.57829 31.1818 7.43748C31.1818 7.29668 31.1538 7.15727 31.0994 7.02737C31.0451 6.89748 30.9655 6.77967 30.8652 6.68081C30.7649 6.58195 30.646 6.50401 30.5154 6.45151C30.3847 6.399 30.2449 6.37299 30.1041 6.37498H3.89581ZM3.89581 15.9375C3.75502 15.9355 3.61523 15.9615 3.48458 16.014C3.35392 16.0665 3.23501 16.1445 3.13474 16.2433C3.03447 16.3422 2.95485 16.46 2.90051 16.5899C2.84616 16.7198 2.81818 16.8592 2.81818 17C2.81818 17.1408 2.84616 17.2802 2.90051 17.4101C2.95485 17.54 3.03447 17.6578 3.13474 17.7567C3.23501 17.8555 3.35392 17.9335 3.48458 17.986C3.61523 18.0385 3.75502 18.0645 3.89581 18.0625H30.1041C30.2449 18.0645 30.3847 18.0385 30.5154 17.986C30.646 17.9335 30.7649 17.8555 30.8652 17.7567C30.9655 17.6578 31.0451 17.54 31.0994 17.4101C31.1538 17.2802 31.1818 17.1408 31.1818 17C31.1818 16.8592 31.1538 16.7198 31.0994 16.5899C31.0451 16.46 30.9655 16.3422 30.8652 16.2433C30.7649 16.1445 30.646 16.0665 30.5154 16.014C30.3847 15.9615 30.2449 15.9355 30.1041 15.9375H3.89581ZM3.89581 25.5C3.75502 25.498 3.61523 25.524 3.48458 25.5765C3.35392 25.629 3.23501 25.707 3.13474 25.8058C3.03447 25.9047 2.95485 26.0225 2.90051 26.1524C2.84616 26.2823 2.81818 26.4217 2.81818 26.5625C2.81818 26.7033 2.84616 26.8427 2.90051 26.9726C2.95485 27.1025 3.03447 27.2203 3.13474 27.3192C3.23501 27.418 3.35392 27.496 3.48458 27.5485C3.61523 27.601 3.75502 27.627 3.89581 27.625H30.1041C30.2449 27.627 30.3847 27.601 30.5154 27.5485C30.646 27.496 30.7649 27.418 30.8652 27.3192C30.9655 27.2203 31.0451 27.1025 31.0994 26.9726C31.1538 26.8427 31.1818 26.7033 31.1818 26.5625C31.1818 26.4217 31.1538 26.2823 31.0994 26.1524C31.0451 26.0225 30.9655 25.9047 30.8652 25.8058C30.7649 25.707 30.646 25.629 30.5154 25.5765C30.3847 25.524 30.2449 25.498 30.1041 25.5H3.89581Z" fill="white" fill-opacity="0.5"/>
</svg>
