<svg width="42" height="42" viewBox="0 0 42 42" fill="none" xmlns="http://www.w3.org/2000/svg">
<path fill-rule="evenodd" clip-rule="evenodd" d="M32.1931 14.891L31.3762 13.4734C30.6851 12.2739 29.1534 11.8601 27.9523 12.5483C27.3805 12.8852 26.6982 12.9807 26.0559 12.814C25.4136 12.6472 24.864 12.2318 24.5284 11.6593C24.3124 11.2955 24.1964 10.881 24.192 10.458C24.2115 9.77963 23.9555 9.1223 23.4825 8.63572C23.0095 8.14913 22.3597 7.87472 21.6811 7.875H20.0352C19.3704 7.875 18.733 8.13991 18.264 8.61114C17.795 9.08237 17.5332 9.72105 17.5364 10.3859C17.5167 11.7585 16.3983 12.8608 15.0255 12.8607C14.6024 12.8563 14.188 12.7403 13.8241 12.5243C12.623 11.836 11.0913 12.2499 10.4002 13.4494L9.52321 14.891C8.83292 16.089 9.2411 17.6197 10.4363 18.3149C11.2131 18.7635 11.6917 19.5924 11.6917 20.4894C11.6917 21.3865 11.2131 22.2154 10.4363 22.6639C9.24261 23.3544 8.83399 24.8814 9.52321 26.0758L10.3522 27.5054C10.676 28.0897 11.2193 28.5209 11.8619 28.7035C12.5045 28.8862 13.1933 28.8052 13.7761 28.4786C14.3489 28.1443 15.0316 28.0527 15.6723 28.2242C16.313 28.3956 16.8586 28.8159 17.188 29.3916C17.4039 29.7554 17.52 30.1699 17.5244 30.593C17.5244 31.9797 18.6485 33.1038 20.0352 33.1038H21.6811C23.0631 33.1038 24.1854 31.987 24.192 30.605C24.1888 29.9381 24.4523 29.2976 24.9238 28.826C25.3954 28.3544 26.0359 28.0909 26.7028 28.0941C27.1249 28.1054 27.5376 28.221 27.9042 28.4305C29.1022 29.1208 30.6329 28.7126 31.3281 27.5175L32.1931 26.0758C32.5279 25.5011 32.6198 24.8167 32.4485 24.174C32.2771 23.5314 31.8566 22.9836 31.2801 22.6519C30.7036 22.3202 30.2831 21.7724 30.1117 21.1298C29.9403 20.4871 30.0322 19.8027 30.367 19.228C30.5848 18.8478 30.8999 18.5327 31.2801 18.3149C32.4681 17.6201 32.8753 16.0984 32.1931 14.903V14.891Z" stroke="white" stroke-opacity="0.5" stroke-width="2" stroke-linecap="round" stroke-linejoin="round"/>
<path d="M20.8642 23.9494C22.7751 23.9494 24.3241 22.4003 24.3241 20.4894C24.3241 18.5785 22.7751 17.0294 20.8642 17.0294C18.9533 17.0294 17.4042 18.5785 17.4042 20.4894C17.4042 22.4003 18.9533 23.9494 20.8642 23.9494Z" stroke="white" stroke-opacity="0.5" stroke-width="2" stroke-linecap="round" stroke-linejoin="round"/>
</svg>
