<svg width="83" height="36" viewBox="0 0 83 36" fill="none" xmlns="http://www.w3.org/2000/svg">
<g clip-path="url(#clip0_5_88)">
<path d="M10.3933 12.9832C10.4157 12.9832 10.4381 12.9832 10.4381 13.0056C10.4606 13.0056 10.4606 13.028 10.4381 13.0504L9.58651 16.1432C9.5641 16.1656 9.54169 16.188 9.51927 16.188H0.0616316C0.0392201 16.188 0.0168086 16.1656 0.0168086 16.1432C-0.00560288 16.1208 -0.00560288 16.0984 0.0168086 16.0984L0.80121 14.6416V2.04639L0.0168086 0.567235C-0.00560288 0.567235 -0.00560288 0.544824 0.0168086 0.522413C0.0168086 0.5 0.0392201 0.5 0.0616316 0.5H4.16293C4.20775 0.5 4.23017 0.522413 4.23017 0.544824V12.9832H10.3933Z" fill="black"/>
<path d="M21.6885 0.5C21.7333 0.5 21.7557 0.522413 21.7557 0.544824V3.63761C21.7557 3.66002 21.7333 3.70484 21.6885 3.70484H15.8167V6.64075H21.2403C21.2403 6.64075 21.2627 6.66316 21.2851 6.66316C21.2851 6.68557 21.2851 6.70798 21.2851 6.73039L20.4334 9.71112C20.4334 9.73353 20.411 9.75594 20.3886 9.75594H15.8167V12.9832H21.6885C21.7333 12.9832 21.7557 13.0056 21.7557 13.028V16.1208C21.7557 16.1432 21.7333 16.188 21.6885 16.188H12.4998C12.4774 16.188 12.455 16.1432 12.455 16.1208V0.544824V0.522413C12.455 0.522413 12.455 0.522413 12.455 0.5C12.4774 0.5 12.4774 0.5 12.4774 0.5C12.4998 0.5 12.4998 0.5 12.4998 0.5H21.6885Z" fill="black"/>
<path d="M33.1405 0.522413L39.2365 16.0984C39.2365 16.1208 39.2365 16.1432 39.2365 16.1432C39.2141 16.1656 39.1916 16.1656 39.1692 16.1656H35.7627C35.7403 16.1656 35.7179 16.1656 35.6955 16.1432L34.5076 13.0953H28.479L27.2911 16.1432C27.2911 16.1656 27.2687 16.188 27.2463 16.188H23.8174C23.795 16.188 23.7725 16.1656 23.7725 16.1432C23.7501 16.1432 23.7501 16.1208 23.7725 16.0984L29.1737 2.31533L28.2324 0.567235C28.21 0.567235 28.21 0.544824 28.2324 0.522413C28.2324 0.5 28.2548 0.5 28.2773 0.5H29.6668H33.0733C33.0957 0.5 33.1181 0.5 33.1405 0.522413ZM31.5045 5.40811L29.6892 10.0249H33.3198L31.5045 5.40811Z" fill="black"/>
<path d="M57.0365 7.64926C57.0814 7.64926 57.1038 7.67167 57.1038 7.69408C57.1262 7.98543 57.1262 8.27678 57.1262 8.59054C57.1262 8.74742 57.1262 8.92672 57.1262 9.0836C57.1038 9.59906 57.0365 10.0921 56.9469 10.5628C56.8797 10.8765 56.79 11.2127 56.7004 11.5264L56.6331 11.7506C55.535 14.8882 52.8232 16.6587 49.1701 16.6587C46.0997 16.6587 43.2759 14.8433 41.976 12.0195L41.8864 11.7954C41.4382 10.7869 41.2365 9.68871 41.2365 8.59054C41.2365 4.13066 44.7999 0.5 49.1701 0.5C52.7335 0.5 55.2212 1.91192 56.3866 4.6013C56.409 4.64612 56.3866 4.66853 56.3642 4.69095L53.4059 6.12528C53.3835 6.14769 53.3611 6.14769 53.3611 6.12528C53.3386 6.12528 53.3386 6.12528 53.3162 6.10287C52.6439 4.6013 51.2544 3.79449 49.2822 3.79449C46.7945 3.79449 44.7551 5.94599 44.7551 8.59054C44.7551 11.2127 46.7945 13.3642 49.2822 13.3642C51.3216 13.3642 52.8008 12.3781 53.4507 10.6076H48.0271C48.0047 10.6076 47.9823 10.5852 47.9823 10.5852C47.9599 10.5628 47.9599 10.5403 47.9823 10.5179L49.3718 7.67167C49.3718 7.64926 49.3942 7.64926 49.4166 7.64926H57.0365Z" fill="black"/>
<path d="M69.6148 14.933C68.4494 15.8967 66.9702 16.4121 65.4014 16.4121C61.9277 16.4121 59.1262 13.8124 59.1262 10.63V0.544824C59.1262 0.522413 59.1486 0.5 59.171 0.5H62.5104C62.5328 0.5 62.5552 0.522413 62.5552 0.544824V10.63C62.5552 12.0643 63.8326 13.2297 65.4014 13.2297C66.2082 13.2297 66.9926 12.916 67.5305 12.3557C67.5978 12.2884 67.6426 12.2436 67.6874 12.1764C68.046 11.7282 68.2477 11.1903 68.2477 10.63V0.544824C68.2477 0.522413 68.2701 0.5 68.2925 0.5H71.6318C71.6542 0.5 71.6766 0.522413 71.6766 0.544824V10.63C71.6766 12.1988 71.0043 13.6779 69.7941 14.7761L69.6148 14.933Z" fill="black"/>
<path d="M82.9102 0.5C82.955 0.5 82.9774 0.522413 82.9774 0.544824V3.63761C82.9774 3.66002 82.955 3.70484 82.9102 3.70484H77.0384V6.64075H82.4619C82.4619 6.64075 82.4843 6.66316 82.5068 6.66316C82.5068 6.68557 82.5068 6.70798 82.5068 6.73039L81.6551 9.71112C81.6551 9.73353 81.6327 9.75594 81.6103 9.75594H77.0384V12.9832H82.9102C82.955 12.9832 82.9774 13.0056 82.9774 13.028V16.1208C82.9774 16.1432 82.955 16.188 82.9102 16.188H73.7215C73.699 16.188 73.6766 16.1432 73.6766 16.1208V0.544824V0.522413C73.6766 0.522413 73.6766 0.522413 73.6766 0.5C73.699 0.5 73.6991 0.5 73.6991 0.5C73.7215 0.5 73.7215 0.5 73.7215 0.5H82.9102Z" fill="black"/>
<path d="M8.69845 25.5456C8.74888 25.7221 8.79931 25.9112 8.83713 26.0876C8.91276 26.4532 8.93798 26.8188 8.93798 27.2096C8.93798 27.5878 8.91276 27.966 8.83713 28.319C8.79931 28.4955 8.74888 28.6846 8.69845 28.8611L8.66063 28.9871C8.04292 30.752 6.51754 31.7479 4.46269 31.7479C2.7356 31.7479 1.14719 30.7268 0.416013 29.1384L0.365587 29.0123C0.113458 28.4451 0 27.8273 0 27.2096C0 26.5793 0.113458 25.9742 0.365587 25.3943L0.416013 25.2682C1.14719 23.6798 2.7356 22.6587 4.46269 22.6587C6.51754 22.6587 8.04292 23.6672 8.66063 25.4195L8.69845 25.5456ZM6.88312 28.2938C7.00919 27.966 7.05961 27.6004 7.05961 27.2096C7.05961 26.8062 7.00919 26.4406 6.88312 26.1129C6.53014 25.0791 5.68551 24.5118 4.52572 24.5118C3.1264 24.5118 1.97921 25.7221 1.97921 27.2096C1.97921 28.6846 3.1264 29.8948 4.52572 29.8948C5.68551 29.8948 6.53014 29.3275 6.88312 28.2938Z" fill="black"/>
<path d="M16.1318 22.6587C16.1571 22.6587 16.1697 22.6713 16.1697 22.6839V24.4236C16.1697 24.4362 16.1571 24.4614 16.1318 24.4614H12.829V26.1129H15.8797C15.8797 26.1129 15.8923 26.1255 15.9049 26.1255C15.9049 26.1381 15.9049 26.1507 15.9049 26.1633L15.4259 27.8399C15.4259 27.8526 15.4133 27.8652 15.4007 27.8652H12.829V31.4454C12.829 31.458 12.8163 31.4832 12.8037 31.4832H10.9632C10.9506 31.4832 10.938 31.458 10.938 31.4454V22.6839V22.6713C10.938 22.6713 10.938 22.6713 10.938 22.6587C10.9506 22.6587 10.9506 22.6587 10.9506 22.6587C10.9632 22.6587 10.9632 22.6587 10.9632 22.6587H16.1318Z" fill="black"/>
<path d="M31.626 24.2979C31.626 25.4633 31.1777 26.539 30.4606 27.3458C31.2674 28.1975 31.738 29.3405 31.738 30.5955C31.738 33.2176 29.6089 35.3691 26.9868 35.3691H20.0616C20.0392 35.3691 20.0168 35.3467 20.0168 35.3243C19.9944 35.3019 19.9944 35.2795 20.0168 35.2795L20.8012 33.8227V21.2275L20.0168 19.7483C19.9944 19.7483 19.9944 19.7259 20.0168 19.7035C20.0168 19.6811 20.0392 19.6811 20.0616 19.6811H23.6923C23.7147 19.6587 23.7147 19.6587 23.7371 19.6587H26.9868C29.5417 19.6587 31.626 21.743 31.626 24.2979ZM24.2302 25.8218H26.9868C27.7936 25.8218 28.4659 25.1719 28.4659 24.3427C28.4659 23.5359 27.7936 22.8859 26.9868 22.8859H24.2302V25.8218ZM26.9868 28.937H24.2302V32.1643H26.9868C27.8608 32.1643 28.6004 31.4247 28.6004 30.5507C28.6004 29.6542 27.8608 28.937 26.9868 28.937Z" fill="black"/>
<path d="M49.202 24.7909C49.2916 25.1047 49.3813 25.4409 49.4485 25.7546C49.583 26.4045 49.6278 27.0545 49.6278 27.7492C49.6278 28.4216 49.583 29.0939 49.4485 29.7214C49.3813 30.0352 49.2916 30.3714 49.202 30.6851L49.1347 30.9093C48.0366 34.0469 45.3248 35.8174 41.6717 35.8174C38.6013 35.8174 35.7775 34.002 34.4776 31.1782L34.388 30.9541C33.9397 29.9456 33.738 28.8474 33.738 27.7492C33.738 26.6287 33.9397 25.5529 34.388 24.522L34.4776 24.2979C35.7775 21.474 38.6013 19.6587 41.6717 19.6587C45.3248 19.6587 48.0366 21.4516 49.1347 24.5668L49.202 24.7909ZM45.9747 29.6766C46.1988 29.0939 46.2885 28.444 46.2885 27.7492C46.2885 27.0321 46.1988 26.3821 45.9747 25.7994C45.3472 23.9617 43.8456 22.9532 41.7838 22.9532C39.2961 22.9532 37.2566 25.1047 37.2566 27.7492C37.2566 30.3714 39.2961 32.5229 41.7838 32.5229C43.8456 32.5229 45.3472 31.5144 45.9747 29.6766Z" fill="black"/>
<path d="M67.0916 24.7909C67.1813 25.1047 67.2709 25.4409 67.3381 25.7546C67.4726 26.4045 67.5174 27.0545 67.5174 27.7492C67.5174 28.4216 67.4726 29.0939 67.3381 29.7214C67.2709 30.0352 67.1813 30.3714 67.0916 30.6851L67.0244 30.9093C65.9262 34.0469 63.2144 35.8174 59.5614 35.8174C56.491 35.8174 53.6671 34.002 52.3673 31.1782L52.2776 30.9541C51.8294 29.9456 51.6277 28.8474 51.6277 27.7492C51.6277 26.6287 51.8294 25.5529 52.2776 24.522L52.3673 24.2979C53.6671 21.474 56.491 19.6587 59.5614 19.6587C63.2144 19.6587 65.9262 21.4516 67.0244 24.5668L67.0916 24.7909ZM63.8644 29.6766C64.0885 29.0939 64.1781 28.444 64.1781 27.7492C64.1781 27.0321 64.0885 26.3821 63.8644 25.7994C63.2368 23.9617 61.7353 22.9532 59.6734 22.9532C57.1857 22.9532 55.1463 25.1047 55.1463 27.7492C55.1463 30.3714 57.1857 32.5229 59.6734 32.5229C61.7353 32.5229 63.2368 31.5144 63.8644 29.6766Z" fill="black"/>
<path d="M78.2299 27.5027L82.5329 35.2571C82.5553 35.2571 82.5553 35.2795 82.5329 35.3019C82.5329 35.3243 82.5105 35.3467 82.4881 35.3467H78.6781C78.6557 35.3467 78.6333 35.3243 78.6333 35.3019L76.2577 31.0437L73.8821 35.3019C73.8821 35.3243 73.8597 35.3467 73.8373 35.3467H71.3496H70.3859C70.3411 35.3467 70.3187 35.3019 70.3187 35.2795V21.2051L69.5343 19.7259C69.5119 19.7259 69.5119 19.7035 69.5343 19.6811C69.5343 19.6587 69.5567 19.6587 69.5791 19.6587H71.3496H73.6804C73.7252 19.6587 73.7476 19.6811 73.7476 19.7035V28.4664L78.6333 19.6811C78.6333 19.6587 78.6557 19.6587 78.6781 19.6587H82.4881C82.5105 19.6587 82.5329 19.6587 82.5329 19.6811C82.5329 19.7035 82.5553 19.7259 82.5329 19.7483L78.2299 27.5027Z" fill="black"/>
</g>
<defs>
<clipPath id="clip0_5_88">
<rect width="83" height="36" fill="white"/>
</clipPath>
</defs>
</svg>
